<svg width="22" height="22" viewBox="0 0 22 22" fill="none" xmlns="http://www.w3.org/2000/svg">
<path d="M18.0309 7.4617C17.9494 7.14754 17.7859 6.86065 17.5572 6.63035C17.3285 6.40004 17.0428 6.23458 16.7292 6.15086C14.828 5.92663 12.9143 5.82559 11 5.84836C9.08578 5.82559 7.17207 5.92663 5.27086 6.15086C4.95729 6.23458 4.67155 6.40004 4.44286 6.63035C4.21416 6.86065 4.05071 7.14754 3.96919 7.4617C3.76094 8.62948 3.65968 9.81385 3.66669 11C3.65933 12.1923 3.76059 13.3828 3.96919 14.5567C4.05494 14.8658 4.22027 15.1469 4.44868 15.3721C4.67709 15.5974 4.96059 15.7587 5.27086 15.84C7.17207 16.0642 9.08578 16.1653 11 16.1425C12.9143 16.1653 14.828 16.0642 16.7292 15.84C17.0395 15.7587 17.323 15.5974 17.5513 15.3721C17.7798 15.1469 17.9451 14.8658 18.0309 14.5567C18.2395 13.3828 18.3407 12.1923 18.3334 11C18.3404 9.81385 18.2391 8.62948 18.0309 7.4617ZM9.49669 13.1908V8.82752L13.3375 11L9.49669 13.1817V13.1908Z" fill="#333333"/>
</svg>
