<svg width="281" height="72" viewBox="0 0 281 72" fill="none" xmlns="http://www.w3.org/2000/svg">
<path d="M90.8123 23V0.599998H95.9963V18.776H107.228V23H90.8123ZM120.63 23.384C118.859 23.384 117.216 23.096 115.702 22.52C114.208 21.944 112.907 21.1333 111.798 20.088C110.71 19.0427 109.856 17.816 109.238 16.408C108.64 15 108.342 13.464 108.342 11.8C108.342 10.136 108.64 8.6 109.238 7.192C109.856 5.784 110.72 4.55733 111.83 3.512C112.939 2.46667 114.24 1.656 115.734 1.08C117.227 0.503999 118.848 0.216 120.598 0.216C122.368 0.216 123.99 0.503999 125.462 1.08C126.955 1.656 128.246 2.46667 129.334 3.512C130.443 4.55733 131.307 5.784 131.926 7.192C132.544 8.57867 132.854 10.1147 132.854 11.8C132.854 13.464 132.544 15.0107 131.926 16.44C131.307 17.848 130.443 19.0747 129.334 20.12C128.246 21.144 126.955 21.944 125.462 22.52C123.99 23.096 122.379 23.384 120.63 23.384ZM120.598 18.968C121.6 18.968 122.518 18.7973 123.35 18.456C124.203 18.1147 124.95 17.624 125.59 16.984C126.23 16.344 126.72 15.5867 127.062 14.712C127.424 13.8373 127.606 12.8667 127.606 11.8C127.606 10.7333 127.424 9.76267 127.062 8.888C126.72 8.01333 126.23 7.256 125.59 6.616C124.971 5.976 124.235 5.48533 123.382 5.144C122.528 4.80267 121.6 4.632 120.598 4.632C119.595 4.632 118.667 4.80267 117.814 5.144C116.982 5.48533 116.246 5.976 115.606 6.616C114.966 7.256 114.464 8.01333 114.102 8.888C113.76 9.76267 113.59 10.7333 113.59 11.8C113.59 12.8453 113.76 13.816 114.102 14.712C114.464 15.5867 114.955 16.344 115.574 16.984C116.214 17.624 116.96 18.1147 117.814 18.456C118.667 18.7973 119.595 18.968 120.598 18.968ZM147.566 23.384C145.795 23.384 144.163 23.1067 142.67 22.552C141.198 21.976 139.907 21.1653 138.798 20.12C137.71 19.0747 136.856 17.848 136.238 16.44C135.64 15.032 135.342 13.4853 135.342 11.8C135.342 10.1147 135.64 8.568 136.238 7.16C136.856 5.752 137.72 4.52533 138.83 3.48C139.939 2.43467 141.24 1.63467 142.734 1.08C144.227 0.503999 145.87 0.216 147.662 0.216C149.646 0.216 151.427 0.546666 153.006 1.208C154.606 1.86933 155.95 2.82933 157.038 4.088L153.71 7.16C152.899 6.30667 152.014 5.67733 151.054 5.272C150.094 4.84533 149.048 4.632 147.918 4.632C146.83 4.632 145.838 4.80267 144.942 5.144C144.046 5.48533 143.267 5.976 142.606 6.616C141.966 7.256 141.464 8.01333 141.102 8.888C140.76 9.76267 140.59 10.7333 140.59 11.8C140.59 12.8453 140.76 13.8053 141.102 14.68C141.464 15.5547 141.966 16.3227 142.606 16.984C143.267 17.624 144.035 18.1147 144.91 18.456C145.806 18.7973 146.787 18.968 147.854 18.968C148.878 18.968 149.87 18.808 150.83 18.488C151.811 18.1467 152.76 17.5813 153.678 16.792L156.622 20.536C155.406 21.4533 153.987 22.1573 152.366 22.648C150.766 23.1387 149.166 23.384 147.566 23.384ZM151.886 19.864V11.448H156.622V20.536L151.886 19.864ZM172.317 23.384C170.547 23.384 168.904 23.096 167.389 22.52C165.896 21.944 164.595 21.1333 163.485 20.088C162.397 19.0427 161.544 17.816 160.925 16.408C160.328 15 160.029 13.464 160.029 11.8C160.029 10.136 160.328 8.6 160.925 7.192C161.544 5.784 162.408 4.55733 163.517 3.512C164.627 2.46667 165.928 1.656 167.421 1.08C168.915 0.503999 170.536 0.216 172.285 0.216C174.056 0.216 175.677 0.503999 177.149 1.08C178.643 1.656 179.933 2.46667 181.021 3.512C182.131 4.55733 182.995 5.784 183.613 7.192C184.232 8.57867 184.541 10.1147 184.541 11.8C184.541 13.464 184.232 15.0107 183.613 16.44C182.995 17.848 182.131 19.0747 181.021 20.12C179.933 21.144 178.643 21.944 177.149 22.52C175.677 23.096 174.067 23.384 172.317 23.384ZM172.285 18.968C173.288 18.968 174.205 18.7973 175.037 18.456C175.891 18.1147 176.637 17.624 177.277 16.984C177.917 16.344 178.408 15.5867 178.749 14.712C179.112 13.8373 179.293 12.8667 179.293 11.8C179.293 10.7333 179.112 9.76267 178.749 8.888C178.408 8.01333 177.917 7.256 177.277 6.616C176.659 5.976 175.923 5.48533 175.069 5.144C174.216 4.80267 173.288 4.632 172.285 4.632C171.283 4.632 170.355 4.80267 169.501 5.144C168.669 5.48533 167.933 5.976 167.293 6.616C166.653 7.256 166.152 8.01333 165.789 8.888C165.448 9.76267 165.277 10.7333 165.277 11.8C165.277 12.8453 165.448 13.816 165.789 14.712C166.152 15.5867 166.643 16.344 167.261 16.984C167.901 17.624 168.648 18.1147 169.501 18.456C170.355 18.7973 171.283 18.968 172.285 18.968ZM7.56163 71V52.824H0.393625V48.6H19.9136V52.824H12.7456V71H7.56163ZM22.7029 71V48.6H27.8869V71H22.7029ZM22.3829 46.776L26.7029 42.168H32.0789L26.2869 46.776H22.3829ZM33.2029 71V48.6H37.4909L50.7069 64.728H48.6269V48.6H53.7469V71H49.4909L36.2429 54.872H38.3229V71H33.2029ZM78.8291 71.384C77.1011 71.384 75.4905 71.1067 73.9971 70.552C72.5251 69.976 71.2451 69.1653 70.1571 68.12C69.0691 67.0747 68.2158 65.848 67.5971 64.44C66.9998 63.032 66.7011 61.4853 66.7011 59.8C66.7011 58.1147 66.9998 56.568 67.5971 55.16C68.2158 53.752 69.0691 52.5253 70.1571 51.48C71.2665 50.4347 72.5571 49.6347 74.0291 49.08C75.5011 48.504 77.1118 48.216 78.8611 48.216C80.8025 48.216 82.5518 48.5573 84.1091 49.24C85.6878 49.9013 87.0105 50.8827 88.0771 52.184L84.7491 55.256C83.9811 54.3813 83.1278 53.7307 82.1891 53.304C81.2505 52.856 80.2265 52.632 79.1171 52.632C78.0718 52.632 77.1118 52.8027 76.2371 53.144C75.3625 53.4853 74.6051 53.976 73.9651 54.616C73.3251 55.256 72.8238 56.0133 72.4611 56.888C72.1198 57.7627 71.9491 58.7333 71.9491 59.8C71.9491 60.8667 72.1198 61.8373 72.4611 62.712C72.8238 63.5867 73.3251 64.344 73.9651 64.984C74.6051 65.624 75.3625 66.1147 76.2371 66.456C77.1118 66.7973 78.0718 66.968 79.1171 66.968C80.2265 66.968 81.2505 66.7547 82.1891 66.328C83.1278 65.88 83.9811 65.208 84.7491 64.312L88.0771 67.384C87.0105 68.6853 85.6878 69.6773 84.1091 70.36C82.5518 71.0427 80.7918 71.384 78.8291 71.384ZM106.938 48.6H112.122V71H106.938V48.6ZM96.7619 71H91.5779V48.6H96.7619V71ZM107.322 61.816H96.3779V57.432H107.322V61.816ZM117.422 71V48.6H122.606V71H117.422ZM120.974 47.096L119.406 45.432C120.024 45.1333 120.451 44.824 120.686 44.504C120.92 44.184 121.038 43.8427 121.038 43.48C121.038 43.0747 120.899 42.7547 120.622 42.52C120.344 42.264 119.982 42.136 119.534 42.136C118.894 42.136 118.264 42.3387 117.646 42.744L116.59 40.728C117.08 40.3653 117.624 40.0987 118.222 39.928C118.84 39.736 119.459 39.64 120.078 39.64C121.208 39.64 122.126 39.96 122.83 40.6C123.555 41.2187 123.918 42.04 123.918 43.064C123.918 43.9813 123.672 44.7707 123.182 45.432C122.691 46.0933 121.955 46.648 120.974 47.096ZM147.704 71.384C145.976 71.384 144.365 71.1067 142.872 70.552C141.4 69.976 140.12 69.1653 139.032 68.12C137.944 67.0747 137.091 65.848 136.472 64.44C135.875 63.032 135.576 61.4853 135.576 59.8C135.576 58.1147 135.875 56.568 136.472 55.16C137.091 53.752 137.944 52.5253 139.032 51.48C140.141 50.4347 141.432 49.6347 142.904 49.08C144.376 48.504 145.987 48.216 147.736 48.216C149.677 48.216 151.427 48.5573 152.984 49.24C154.563 49.9013 155.885 50.8827 156.952 52.184L153.624 55.256C152.856 54.3813 152.003 53.7307 151.064 53.304C150.125 52.856 149.101 52.632 147.992 52.632C146.947 52.632 145.987 52.8027 145.112 53.144C144.237 53.4853 143.48 53.976 142.84 54.616C142.2 55.256 141.699 56.0133 141.336 56.888C140.995 57.7627 140.824 58.7333 140.824 59.8C140.824 60.8667 140.995 61.8373 141.336 62.712C141.699 63.5867 142.2 64.344 142.84 64.984C143.48 65.624 144.237 66.1147 145.112 66.456C145.987 66.7973 146.947 66.968 147.992 66.968C149.101 66.968 150.125 66.7547 151.064 66.328C152.003 65.88 152.856 65.208 153.624 64.312L156.952 67.384C155.885 68.6853 154.563 69.6773 152.984 70.36C151.427 71.0427 149.667 71.384 147.704 71.384ZM157.103 71L167.087 48.6H172.207L182.223 71H176.783L168.591 51.224H170.639L162.415 71H157.103ZM162.095 66.2L163.471 62.264H174.991L176.399 66.2H162.095ZM184.547 71V48.6H194.243C196.248 48.6 197.976 48.9307 199.427 49.592C200.877 50.232 201.997 51.16 202.787 52.376C203.576 53.592 203.971 55.0427 203.971 56.728C203.971 58.392 203.576 59.832 202.787 61.048C201.997 62.2427 200.877 63.16 199.427 63.8C197.976 64.44 196.248 64.76 194.243 64.76H187.427L189.731 62.488V71H184.547ZM198.787 71L193.187 62.872H198.723L204.387 71H198.787ZM189.731 63.064L187.427 60.632H193.955C195.555 60.632 196.749 60.2907 197.539 59.608C198.328 58.904 198.723 57.944 198.723 56.728C198.723 55.4907 198.328 54.5307 197.539 53.848C196.749 53.1653 195.555 52.824 193.955 52.824H187.427L189.731 50.36V63.064ZM208.078 71V48.6H219.022C221.838 48.6 223.95 49.1333 225.358 50.2C226.787 51.2667 227.502 52.6747 227.502 54.424C227.502 55.5973 227.214 56.6213 226.638 57.496C226.062 58.3493 225.273 59.0107 224.27 59.48C223.267 59.9493 222.115 60.184 220.814 60.184L221.422 58.872C222.83 58.872 224.078 59.1067 225.166 59.576C226.254 60.024 227.097 60.696 227.694 61.592C228.313 62.488 228.622 63.5867 228.622 64.888C228.622 66.808 227.865 68.312 226.35 69.4C224.835 70.4667 222.606 71 219.662 71H208.078ZM213.23 67.096H219.278C220.622 67.096 221.635 66.8827 222.318 66.456C223.022 66.008 223.374 65.304 223.374 64.344C223.374 63.4053 223.022 62.712 222.318 62.264C221.635 61.7947 220.622 61.56 219.278 61.56H212.846V57.784H218.382C219.641 57.784 220.601 57.5707 221.262 57.144C221.945 56.696 222.286 56.024 222.286 55.128C222.286 54.2533 221.945 53.6027 221.262 53.176C220.601 52.728 219.641 52.504 218.382 52.504H213.23V67.096ZM243.427 71.384C241.656 71.384 240.013 71.096 238.499 70.52C237.005 69.944 235.704 69.1333 234.595 68.088C233.507 67.0427 232.653 65.816 232.035 64.408C231.437 63 231.139 61.464 231.139 59.8C231.139 58.136 231.437 56.6 232.035 55.192C232.653 53.784 233.517 52.5573 234.627 51.512C235.736 50.4667 237.037 49.656 238.531 49.08C240.024 48.504 241.645 48.216 243.395 48.216C245.165 48.216 246.787 48.504 248.259 49.08C249.752 49.656 251.043 50.4667 252.131 51.512C253.24 52.5573 254.104 53.784 254.723 55.192C255.341 56.5787 255.651 58.1147 255.651 59.8C255.651 61.464 255.341 63.0107 254.723 64.44C254.104 65.848 253.24 67.0747 252.131 68.12C251.043 69.144 249.752 69.944 248.259 70.52C246.787 71.096 245.176 71.384 243.427 71.384ZM243.395 66.968C244.397 66.968 245.315 66.7973 246.147 66.456C247 66.1147 247.747 65.624 248.387 64.984C249.027 64.344 249.517 63.5867 249.859 62.712C250.221 61.8373 250.403 60.8667 250.403 59.8C250.403 58.7333 250.221 57.7627 249.859 56.888C249.517 56.0133 249.027 55.256 248.387 54.616C247.768 53.976 247.032 53.4853 246.179 53.144C245.325 52.8027 244.397 52.632 243.395 52.632C242.392 52.632 241.464 52.8027 240.611 53.144C239.779 53.4853 239.043 53.976 238.403 54.616C237.763 55.256 237.261 56.0133 236.899 56.888C236.557 57.7627 236.387 58.7333 236.387 59.8C236.387 60.8453 236.557 61.816 236.899 62.712C237.261 63.5867 237.752 64.344 238.371 64.984C239.011 65.624 239.757 66.1147 240.611 66.456C241.464 66.7973 242.392 66.968 243.395 66.968ZM259.547 71V48.6H263.835L277.051 64.728H274.971V48.6H280.091V71H275.835L262.587 54.872H264.667V71H259.547Z" fill="#26764A"/>
</svg>
